<svg width="30" height="23" viewBox="0 0 30 23" fill="none" xmlns="http://www.w3.org/2000/svg">
<path d="M17.3547 16.9663C17.1121 16.9663 16.8468 16.9208 16.5587 16.8299C16.2707 16.7389 15.9902 16.5645 15.7172 16.3068C15.4443 16.0339 15.2169 15.6548 15.0349 15.1696C14.8682 14.6693 14.7848 14.0173 14.7848 13.2137C14.7848 13.0924 14.7848 12.9787 14.7848 12.8726C14.7848 12.7513 14.7924 12.63 14.8075 12.5087L15.0804 8.52865C14.8075 8.21025 14.6711 7.95249 14.6711 7.75539C14.6711 7.40666 14.8378 7.20197 15.1714 7.14132L15.4671 2.59271C15.1638 2.30463 14.8909 1.98623 14.6483 1.6375C14.4057 1.27361 14.2844 0.970371 14.2844 0.727778C14.2844 0.485186 14.4285 0.36389 14.7165 0.36389C14.9288 0.36389 15.2775 0.348727 15.7627 0.318403C16.2479 0.272917 16.7786 0.227431 17.3547 0.181945C17.9309 0.136458 18.4843 0.0985534 19.015 0.0682297C19.5457 0.0227432 19.9626 0 20.2659 0C21.4788 0 22.4113 0.257755 23.0632 0.773265C23.7152 1.27361 24.0412 1.83461 24.0412 2.45625C24.0412 2.60787 23.9654 2.68368 23.8138 2.68368C23.6773 2.68368 23.5484 2.68368 23.4271 2.68368C23.3058 2.66852 23.1845 2.66094 23.0632 2.66094C22.4113 2.66094 21.7138 2.69884 20.9709 2.77465C20.2431 2.85047 19.5608 2.92627 18.924 3.00208L18.6283 6.61823C19.0226 6.58791 19.3865 6.57275 19.72 6.57275C19.9474 6.57275 20.2128 6.64098 20.516 6.77743C20.8344 6.89873 21.1377 7.05793 21.4257 7.25504C21.7138 7.45215 21.9564 7.66441 22.1535 7.89184C22.3506 8.10411 22.4492 8.30122 22.4492 8.48316C22.4492 8.75608 22.381 8.93044 22.2445 9.00625C22.108 9.08206 21.8958 9.11997 21.6077 9.11997C21.259 9.11997 20.7889 9.16546 20.1976 9.25643C19.6063 9.33224 19.0074 9.40805 18.4009 9.48386L17.8551 16.6252C17.8399 16.7616 17.7869 16.8526 17.6959 16.8981C17.6049 16.9436 17.4912 16.9663 17.3547 16.9663Z" fill="#6C6565"/>
<path d="M2.6382 17.6261C2.12269 17.6261 1.66024 17.429 1.25087 17.0348C0.856655 16.6558 0.659549 16.072 0.659549 15.2836C0.659549 14.9652 0.705035 14.6089 0.796007 14.2147C0.538253 14.0024 0.341146 13.7598 0.204688 13.4869C0.0682292 13.1988 0 12.9562 0 12.7591C0.015162 12.6378 0.121296 12.5393 0.318403 12.4635C0.530671 12.3876 0.88698 12.3194 1.38733 12.2588C1.84219 10.97 2.36528 9.55235 2.9566 8.00582C3.56308 6.45929 4.26811 4.7763 5.0717 2.95686C5.25365 2.56264 5.50382 2.36554 5.82222 2.36554C5.95868 2.36554 6.10272 2.40344 6.25434 2.47925C6.22402 2.03956 6.19369 1.60744 6.16337 1.1829C6.14821 0.81901 6.21644 0.553674 6.36806 0.386892C6.53484 0.22011 6.73953 0.136719 6.98212 0.136719C7.28536 0.136719 7.61135 0.250434 7.96007 0.477864C8.3088 0.705295 8.61204 1.0237 8.86979 1.43307C9.12755 1.84245 9.26401 2.33521 9.27917 2.91137C9.29433 3.48753 9.33982 4.23047 9.41563 5.14019C9.5066 6.03475 9.61273 7.00512 9.73403 8.05131C9.85533 9.08232 9.9842 10.0982 10.1207 11.0989C10.4391 11.1444 10.765 11.2581 11.0986 11.44C11.4473 11.6068 11.743 11.8267 11.9856 12.0996C12.2282 12.3573 12.3495 12.653 12.3495 12.9866C12.3495 13.2291 12.2661 13.3808 12.0993 13.4414C11.9325 13.5021 11.7203 13.5324 11.4625 13.5324H10.9167C10.8409 13.5324 10.765 13.5324 10.6892 13.5324C10.6286 13.5324 10.5604 13.5324 10.4846 13.5324C10.6058 14.245 10.7196 14.8439 10.8257 15.3291C10.9318 15.8143 11.0304 16.1327 11.1214 16.2843C11.2123 16.4359 11.1517 16.5875 10.9394 16.7392C10.7271 16.8908 10.4846 16.9666 10.2116 16.9666C9.69613 16.9666 9.24126 16.7846 8.84705 16.4208C8.45284 16.0569 8.17234 15.367 8.00556 14.3511C7.97523 14.2147 7.95249 14.0706 7.93733 13.919L3.68438 14.5786C3.51759 15.0941 3.35081 15.602 3.18403 16.1024C3.06273 16.4966 2.9945 16.8074 2.97934 17.0348C2.97934 17.2622 2.97176 17.4139 2.9566 17.4897C2.94144 17.5806 2.8353 17.6261 2.6382 17.6261ZM6.73195 6.86867C6.36806 7.71774 6.01933 8.55165 5.68577 9.3704C5.3522 10.1892 5.02622 10.9927 4.70781 11.7812L7.48247 11.3945C7.34601 10.6364 7.20955 9.88591 7.07309 9.14297C6.9518 8.40003 6.83808 7.64193 6.73195 6.86867Z" fill="#6C6565"/>
<path d="M27.7474 7.34352C27.8634 7.34352 27.98 7.36535 28.091 7.40987C28.3822 7.52679 28.5941 7.78379 28.6533 8.09214L29.9833 15.0206C30.0794 15.5209 29.7516 16.0043 29.2513 16.1004C28.7508 16.1966 28.2674 15.8687 28.1714 15.3683L27.1119 9.84939L22.5313 13.1045C22.116 13.3997 21.54 13.3022 21.245 12.8869C20.9498 12.4716 21.0472 11.8957 21.4626 11.6006L27.213 7.51419C27.3715 7.40149 27.5587 7.34352 27.7474 7.34352Z" fill="#6C6565"/>
<path d="M27.2456 7.85887C27.2884 7.85887 27.3316 7.86187 27.3752 7.86802C27.8797 7.9389 28.2312 8.40539 28.1603 8.90993C27.5776 13.0556 25.4134 16.7276 22.0663 19.2496C18.7191 21.7716 14.5931 22.8395 10.4469 22.2567C7.22673 21.8039 4.27444 20.3909 1.90918 18.1705C-0.402567 16.0002 2.14619 16.3258 1.45684 13.2448C1.34567 12.7476 1.65848 12.2543 2.15572 12.1431C2.65296 12.0316 3.1462 12.3447 3.25744 12.842C3.86561 15.5606 2.16466 14.9091 4.20581 16.8253C6.29201 18.7839 7.86265 20.0301 10.7038 20.4297C14.3614 20.9437 18.0025 20.0015 20.9559 17.776C23.9094 15.5507 25.8191 12.3107 26.3332 8.65316C26.398 8.19221 26.7931 7.85895 27.2456 7.85887Z" fill="#6C6565"/>
</svg>
