<svg width="30" height="30" viewBox="0 0 30 30" fill="none" xmlns="http://www.w3.org/2000/svg">
<g clip-path="url(#clip0_1300_29)">
<path d="M22.1134 14.4269H20.3704V15.5609H22.1134V17.5619H23.2474V15.5609H24.9994V14.4269H23.2474V12.4889H22.1134V14.4269ZM14.1544 14.3879C13.8274 14.5319 13.5514 14.6969 13.3204 14.8889C13.0894 15.0779 12.9064 15.2999 12.7624 15.5609C12.6184 15.8189 12.5164 16.1249 12.4474 16.4819C12.3844 16.8329 12.3514 17.2499 12.3514 17.7239C12.3484 18.3719 12.4114 18.9419 12.5434 19.4309C12.6724 19.9169 12.8764 20.3249 13.1644 20.6519C13.4524 20.9759 13.8334 21.2219 14.3014 21.3839C14.7724 21.5459 15.3484 21.6269 16.0294 21.6269C16.7614 21.6299 17.3884 21.5039 17.9134 21.2459C18.4384 20.9849 18.8434 20.5679 19.1254 19.9889C19.4074 19.4159 19.5544 18.6539 19.5544 17.7059C19.5544 17.0819 19.4974 16.5479 19.3804 16.0979C19.2664 15.6509 19.0654 15.2939 18.7864 15.0209C18.5014 14.7449 18.1174 14.5559 17.6284 14.4569V14.4209C18.0664 14.2469 18.4024 14.0339 18.6394 13.7939C18.8794 13.5479 19.0414 13.2569 19.1314 12.9209C19.2214 12.5849 19.2664 12.1919 19.2604 11.7419C19.2634 11.0129 19.1584 10.4039 18.9394 9.9089C18.7204 9.4169 18.3724 9.0479 17.8894 8.7959C17.4064 8.5469 16.7704 8.4209 15.9754 8.4209C15.3664 8.4269 14.8474 8.5139 14.4244 8.6939C13.9984 8.8709 13.6504 9.1019 13.3924 9.3929C13.1284 9.6809 12.9364 10.0019 12.8134 10.3499C12.6934 10.6979 12.6334 11.0459 12.6364 11.3939C12.6364 11.8469 12.6694 12.2339 12.7294 12.5519C12.7894 12.8729 12.8854 13.1459 13.0084 13.3649C13.1314 13.5899 13.2874 13.7819 13.4794 13.9439C13.6684 14.1029 13.8934 14.2529 14.1514 14.3879H14.1544ZM15.9604 13.5959C15.7174 13.5959 15.5224 13.5389 15.3784 13.4429C15.2344 13.3439 15.1234 13.2149 15.0544 13.0529C14.9824 12.8909 14.9344 12.7109 14.9104 12.5159C14.8894 12.3209 14.8774 12.1229 14.8804 11.9279C14.8774 11.6309 14.9044 11.3639 14.9644 11.1179C15.0244 10.8749 15.1324 10.6799 15.2974 10.5329C15.4564 10.3889 15.6934 10.3139 15.9994 10.3109C16.3144 10.3079 16.5634 10.4279 16.7464 10.6649C16.9324 10.8989 17.0254 11.2649 17.0284 11.7539C17.0314 11.9519 17.0224 12.1529 17.0074 12.3659C16.9894 12.5789 16.9474 12.7799 16.8814 12.9629C16.8154 13.1489 16.7074 13.2989 16.5634 13.4159C16.4164 13.5299 16.2184 13.5899 15.9634 13.5929L15.9604 13.5959ZM14.7574 17.7929C14.7544 17.4359 14.7574 17.1119 14.7664 16.8119C14.7724 16.5119 14.8144 16.2539 14.8804 16.0319C14.9434 15.8069 15.0604 15.6359 15.2284 15.5099C15.3934 15.3869 15.6304 15.3209 15.9394 15.3149C16.2274 15.3149 16.4494 15.3779 16.6144 15.4979C16.7794 15.6149 16.8964 15.7829 16.9744 15.9899C17.0494 16.1969 17.0974 16.4399 17.1154 16.7129C17.1364 16.9859 17.1424 17.2769 17.1424 17.5829C17.1424 17.8559 17.1394 18.1169 17.1244 18.3629C17.1094 18.6119 17.0674 18.8339 16.9954 19.0319C16.9294 19.2269 16.8094 19.3889 16.6504 19.5119C16.4884 19.6349 16.2634 19.7099 15.9724 19.7309C15.6814 19.7219 15.4474 19.6649 15.2824 19.5659C15.1144 19.4669 14.9944 19.3259 14.9164 19.1519C14.8384 18.9779 14.7934 18.7769 14.7754 18.5429C14.7574 18.3119 14.7484 18.0599 14.7514 17.7869L14.7574 17.7929ZM8.06137 21.3689H10.4674V8.4749H8.69737C8.57737 8.9159 8.40037 9.2789 8.17537 9.5699C7.94737 9.8579 7.68337 10.0859 7.36837 10.2479C7.05937 10.4129 6.71737 10.5329 6.34237 10.6019C5.97037 10.6709 5.57137 10.7069 5.15137 10.7099V12.4289H8.05837V21.3689H8.06137Z" fill="white"/>
<path d="M24.5696 5.52894C22.1396 3.09894 18.7856 1.59594 15.0776 1.59594C11.3696 1.59594 8.01265 3.09594 5.58265 5.52894C3.15265 7.95894 1.64965 11.3129 1.64965 15.0239C1.64965 18.7349 3.15265 22.0889 5.58265 24.5189C8.01265 26.9489 11.3696 28.4519 15.0776 28.4519C18.7856 28.4519 22.1396 26.9489 24.5696 24.5189C26.9996 22.0889 28.5026 18.7319 28.5026 15.0239C28.5026 11.3159 26.9996 7.95894 24.5696 5.52894ZM15.0776 0.335938C19.1306 0.335938 22.8026 1.97994 25.4636 4.63794C28.1216 7.29594 29.7656 10.9709 29.7656 15.0239C29.7656 19.0769 28.1216 22.7519 25.4636 25.4099C22.8056 28.0679 19.1336 29.7119 15.0776 29.7119C11.0216 29.7119 7.34665 28.0679 4.69165 25.4099C2.03365 22.7519 0.389648 19.0769 0.389648 15.0239C0.389648 10.9709 2.03365 7.29594 4.69165 4.63794C7.34965 1.97994 11.0216 0.335938 15.0776 0.335938Z" fill="white" stroke="white" stroke-width="0.5"/>
</g>
<defs>
<clipPath id="clip0_1300_29">
<rect width="30" height="30" fill="white"/>
</clipPath>
</defs>
</svg>
