<svg width="30" height="30" viewBox="0 0 30 30" fill="none" xmlns="http://www.w3.org/2000/svg">
<g clip-path="url(#clip0_1300_25)">
<path fill-rule="evenodd" clip-rule="evenodd" d="M8.85571 30.048L0.0537109 21.246V8.802L8.85571 0H21.2997L30.1017 8.802V21.246L21.2997 30.048H8.85571ZM28.7288 9.37007L20.7317 1.373H9.42407L1.427 9.37007V20.6777L9.42407 28.6748H20.7317L28.7288 20.6777V9.37007Z" fill="white"/>
<path fill-rule="evenodd" clip-rule="evenodd" d="M2.57837 20.2031V9.84663L9.90161 2.52144H20.2571L27.5813 9.84468V20.2001L20.2571 27.5244H9.89868L2.57837 20.2031ZM19.806 8.88C19.806 8.272 20.2964 7.78062 20.904 7.779C21.5116 7.78062 22.002 8.272 22.002 8.88V20.889C22.002 23.439 19.935 25.509 17.382 25.509H15.717C13.95 25.509 12.24 24.888 10.887 23.754C10.188 23.169 9.501 22.485 9.075 21.777C8.973 21.612 8.871 21.447 8.76 21.288C8.421 20.793 8.106 20.28 7.809 19.755L6.342 17.175C6.09 16.731 6.165 16.176 6.525 15.816C6.963 15.378 7.674 15.375 8.118 15.81L10.41 18.585C10.617 18.837 11.022 18.69 11.022 18.366V6.741C11.022 6.132 11.514 5.64 12.123 5.64C12.732 5.64 13.224 6.132 13.224 6.741V13.302C13.224 13.503 13.386 13.665 13.587 13.665C13.788 13.665 13.95 13.503 13.95 13.302V5.634C13.95 5.025 14.442 4.533 15.051 4.533C15.66 4.533 16.152 5.025 16.152 5.634V13.302C16.152 13.503 16.314 13.665 16.515 13.665C16.716 13.665 16.878 13.503 16.878 13.302V6.741C16.878 6.132 17.37 5.64 17.979 5.64C18.588 5.64 19.08 6.132 19.08 6.741V13.302C19.08 13.503 19.242 13.665 19.443 13.665C19.644 13.665 19.806 13.503 19.806 13.302V8.88Z" fill="white"/>
</g>
<defs>
<clipPath id="clip0_1300_25">
<rect width="30" height="30" fill="white"/>
</clipPath>
</defs>
</svg>
