<svg width="30" height="30" viewBox="0 0 30 30" fill="none" xmlns="http://www.w3.org/2000/svg">
<path d="M6.18859 27.1739C6.13459 28.4249 5.29759 29.2379 4.18159 29.2379C3.59659 29.2379 3.09259 29.0099 2.69359 28.5629C2.36059 28.1909 2.18359 27.7109 2.18359 27.1679C2.18359 26.6249 2.39359 26.1179 2.79859 25.7189C3.17959 25.3379 3.65059 25.1489 4.22659 25.1489C5.02759 25.1489 5.64859 25.5419 5.95159 26.2229H5.24959C4.98859 25.8899 4.62559 25.7189 4.18159 25.7189C3.80959 25.7189 3.46759 25.8629 3.20659 26.1269C2.93059 26.4089 2.77459 26.7959 2.77459 27.1739C2.77459 27.5879 2.91859 27.9659 3.17359 28.2299C3.44359 28.5119 3.81559 28.6739 4.18159 28.6739C4.77259 28.6739 5.23759 28.3589 5.53759 27.7289H3.75559V27.1769H6.18859V27.1739Z" fill="white"/>
<path d="M6.80027 29.1601H6.19727L7.73627 25.2271H8.28827L9.82727 29.1601H9.20327L8.77127 28.0141H7.24427L6.80027 29.1601ZM8.01227 25.9681L7.44827 27.4621H8.56727L8.01527 25.9681H8.01227Z" fill="white"/>
<path d="M10.0439 29.1601V25.2271H10.8899L12.0299 28.2691L13.1699 25.2271H14.0069V29.1601H13.4699L13.5089 25.7461L12.2309 29.1601H11.8259L10.5539 25.7461L10.5929 29.1601H10.0439Z" fill="white"/>
<path d="M16.5083 29.2379C15.9263 29.2379 15.4343 29.0219 15.0473 28.6139C14.6753 28.2209 14.4893 27.7349 14.4893 27.1529C14.4893 26.6099 14.6933 26.1119 15.0863 25.7309C15.4733 25.3499 15.9593 25.1489 16.5203 25.1489C17.4383 25.1489 18.2243 25.7519 18.4793 26.7209H17.4383C17.2283 26.3339 16.9133 26.1299 16.5263 26.1299C15.9383 26.1299 15.4793 26.5829 15.4793 27.1589C15.4793 27.7829 15.9653 28.2659 16.5083 28.2659C16.8803 28.2659 17.2043 28.0679 17.4143 27.7019H18.4613C18.2003 28.6589 17.4533 29.2409 16.5083 29.2409V29.2379Z" fill="white"/>
<path d="M19.4338 29.1601H18.3838L19.8928 25.2271H20.6788L22.1878 29.1601H21.1258L20.9308 28.5901H19.6318L19.4338 29.1601ZM20.2858 26.5141L19.8928 27.7741H20.6728L20.2858 26.5141Z" fill="white"/>
<path d="M22.2657 29.1601V25.2271H23.5707C23.9847 25.2271 24.2997 25.2541 24.5667 25.4431C24.9147 25.6861 25.0977 26.0581 25.0977 26.5441C25.0977 27.1801 24.7647 27.6571 24.2067 27.8101L25.1697 29.1601H23.9787L23.2257 27.8941V29.1601H22.2627H22.2657ZM23.4177 27.0421C23.8947 27.0421 24.1257 26.9191 24.1257 26.5651C24.1257 26.2381 23.9217 26.1061 23.4957 26.1061H23.2287V27.0421H23.4177Z" fill="white"/>
<path d="M25.6074 29.1601V25.2271H27.7434V26.0971H26.5704V26.7331H27.7434V27.6061H26.5704V28.2931H27.7434V29.1631H25.6074V29.1601Z" fill="white"/>
<path d="M27.0455 14.4211C26.9405 14.3611 26.8235 14.3221 26.6975 14.3041C26.6675 14.2981 26.6375 14.2981 26.6105 14.2951C26.5955 14.2951 26.5805 14.2891 26.5625 14.2891H26.5175C26.4785 14.2891 26.4395 14.2891 26.4005 14.2891H18.7085C18.1655 14.2891 17.7215 14.7301 17.7215 15.2731C17.7215 15.8161 18.1625 16.2601 18.7085 16.2601H21.6965C21.7955 16.2601 21.8735 16.3411 21.8735 16.4401C21.8735 16.4971 21.8435 16.5451 21.8015 16.5781C20.1635 17.4541 18.0545 17.9851 15.7475 17.9851C15.1865 17.9851 14.6375 17.9521 14.1035 17.8921V20.1301C14.5685 20.1631 15.0425 20.1841 15.5195 20.1841C18.7295 20.1841 21.6485 19.3981 23.8385 18.1171C23.8655 18.1051 23.8955 18.0991 23.9285 18.0991C24.0365 18.0991 24.1235 18.1861 24.1235 18.2941C24.1235 18.3151 24.1205 18.3331 24.1145 18.3511L23.6585 19.5901C23.4185 20.2411 23.7515 20.9641 24.4025 21.2041C24.5465 21.2581 24.6935 21.2821 24.8375 21.2821C25.3505 21.2821 25.8305 20.9671 26.0165 20.4601L27.6665 15.9811C27.8915 15.3721 27.6095 14.7091 27.0425 14.4271L27.0455 14.4211Z" fill="white"/>
<path d="M15.7504 5.96685C18.0754 5.96685 20.2024 6.50085 21.8464 7.38885C21.8464 7.38885 22.8904 8.13885 23.3884 7.41885C23.9584 6.59085 22.8214 6.07485 22.8214 6.07485C20.7814 5.11485 18.2584 4.54785 15.5254 4.54785C15.0454 4.54785 14.5744 4.56585 14.1094 4.60185V6.05685C14.6434 5.99685 15.1924 5.96385 15.7534 5.96385L15.7504 5.96685Z" fill="white"/>
<path d="M3.93915 0.810059C2.97915 0.810059 2.20215 1.58706 2.20215 2.54706V21.5131C2.20215 22.4731 2.97915 23.2501 3.93915 23.2501H14.1061V20.1241C7.98915 19.6771 3.23715 16.3741 3.23715 12.3601C3.23715 8.34606 7.98915 5.04306 14.1061 4.59606V0.810059H3.93915Z" fill="white"/>
<path d="M6.31543 11.9761C6.31543 14.9371 9.67843 17.3971 14.1064 17.8921V6.06006C9.68143 6.55506 6.31543 9.01506 6.31543 11.9761Z" fill="white"/>
</svg>
