<svg width="295" height="74" viewBox="0 0 295 74" fill="none" xmlns="http://www.w3.org/2000/svg">
<g clip-path="url(#clip0_1317_22)">
<path d="M7.68975 9H286.31C288.35 9 290.306 9.81655 291.748 11.27C293.19 12.7235 294 14.6948 294 16.7503V66.2497C294 68.3052 293.19 70.2765 291.748 71.73C290.306 73.1834 288.35 74 286.31 74H7.68975C5.6503 74 3.69438 73.1834 2.25227 71.73C0.810167 70.2765 0 68.3052 0 66.2497L0 16.7503C0 14.6948 0.810167 12.7235 2.25227 11.27C3.69438 9.81655 5.6503 9 7.68975 9Z" fill="#009804"/>
<path d="M69 17.0686V65.9314C68.9562 66.7825 68.588 67.5815 67.9752 68.1554C67.3625 68.7293 66.5544 69.0318 65.7263 68.9973H17.2737C16.4456 69.0318 15.6375 68.7293 15.0247 68.1554C14.412 67.5815 14.0438 66.7825 14 65.9314V17.0686C14.001 16.5323 14.1493 16.0072 14.428 15.5538L15.4839 14.5044C16.0134 14.1808 16.617 14.0076 17.233 14.0027H65.724C66.5521 13.9682 67.3602 14.2707 67.9729 14.8446C68.5857 15.4185 68.9539 16.2175 68.9977 17.0686" fill="white"/>
<path d="M26.6907 56.0283C27.1536 54.4256 27.5864 52.7939 28.0931 51.1323C28.1599 50.9405 28.1764 50.7351 28.1412 50.5352C28.106 50.3354 28.0201 50.1477 27.8918 49.99C26.1487 47.2782 25.2708 44.1056 25.3734 40.8886C25.476 37.6717 26.5542 34.5607 28.4666 31.9642C32.5765 26.5043 38.2231 24.2343 44.9289 25.658C51.5422 27.0372 55.7825 31.3258 57.289 37.868C57.7829 39.9945 57.8328 42.1992 57.4355 44.3456C57.0382 46.492 56.2022 48.5345 54.9792 50.3467C53.7563 52.1589 52.1723 53.7022 50.3255 54.8811C48.4787 56.06 46.4082 56.8494 44.2422 57.2005C43.5073 57.3722 42.7513 57.4373 41.9976 57.394C38.9215 57.4668 35.8845 56.6973 33.2184 55.1694C33.0811 55.0594 32.9175 54.9866 32.7435 54.958C32.5696 54.9293 32.3911 54.9459 32.2254 55.0059C30.4651 55.4354 28.7496 55.8958 27.0048 56.3407C26.9276 56.3706 26.8463 56.3892 26.7636 56.3958C26.6343 56.3958 26.6333 56.2885 26.6907 56.0283ZM37.7777 22.3801C34.7843 22.9658 31.9715 24.2437 29.5666 26.1108C27.1618 27.9778 25.2326 30.3814 23.9349 33.1273C22.6371 35.8731 22.0074 38.8842 22.0965 41.917C22.1857 44.9497 22.9912 47.919 24.448 50.5848C24.5416 50.7224 24.6059 50.8775 24.6368 51.0407C24.6678 51.2039 24.6648 51.3717 24.6279 51.5337C23.7176 54.4865 22.8774 57.5429 22.076 60.5287C21.9418 61.0636 21.9418 61.0635 22.4416 60.9156C25.5976 60.0693 28.7224 59.2713 31.8753 58.4975C31.9874 58.449 32.1095 58.4277 32.2315 58.4356C32.3535 58.4436 32.4718 58.4804 32.5766 58.543C35.1952 59.8932 38.0882 60.6338 41.0369 60.709C43.9856 60.7841 46.9128 60.1918 49.5976 58.9768C52.2823 57.7617 54.6543 55.9558 56.5343 53.6953C58.4143 51.4349 59.7531 48.7791 60.4496 45.9285C61.1461 43.078 61.182 40.1074 60.5548 37.241C59.9275 34.3746 58.6534 31.6875 56.8286 29.3827C55.0039 27.0779 52.6764 25.2157 50.0218 23.9367C47.3673 22.6577 44.4552 21.9955 41.5055 22C40.2563 22.0325 39.0116 22.1618 37.7826 22.3869" fill="#009804"/>
<path d="M33.539 32.8832C32.8001 33.5056 32.2465 34.317 31.9379 35.2297C31.6294 36.1425 31.5777 37.1218 31.7884 38.0616C32.1722 39.7351 32.9465 41.2953 34.0486 42.6162C36.5795 46.2938 40.2943 49.0044 44.5813 50.3016C45.2296 50.5274 45.9165 50.6234 46.6023 50.5841C47.0337 50.6496 47.4737 50.6345 47.8996 50.5396C49.6823 50.0347 51.2423 49.0104 51.3687 46.9928C51.4805 45.9695 51.4806 45.895 50.5187 45.4211C50.2944 45.3346 50.0752 45.2355 49.8622 45.1242C48.9519 44.7083 48.0144 44.2634 47.0584 43.8184C46.8746 43.7252 46.6629 43.7024 46.4633 43.7543C46.2637 43.8062 46.0903 43.9292 45.9759 44.0999C45.513 44.7083 45.0209 45.3312 44.522 45.895C44.4154 46.0523 44.2523 46.163 44.0663 46.2046C43.8802 46.2461 43.6852 46.2153 43.5212 46.1185C40.7143 45.0489 38.366 43.0463 36.8748 40.4506C36.8096 40.3742 36.7608 40.2852 36.7314 40.1893C36.702 40.0933 36.6927 39.9924 36.704 39.8928C36.7153 39.7931 36.747 39.6968 36.7971 39.6098C36.8472 39.5227 36.9147 39.4468 36.9955 39.3867C37.4616 38.9123 37.8625 38.3786 38.1878 37.7995C38.2572 37.6764 38.3003 37.5404 38.3145 37.3999C38.3288 37.2595 38.3138 37.1176 38.2705 36.9832C37.7113 35.663 37.1219 34.3872 36.5695 33.0177C36.4498 32.8213 36.3042 32.6417 36.1367 32.4838C35.8955 32.3851 35.6357 32.3395 35.3752 32.3503C34.7221 32.3289 34.0794 32.516 33.541 32.8842" fill="#009804"/>
</g>
<defs>
<clipPath id="clip0_1317_22">
<rect width="294.388" height="73.902" fill="white"/>
</clipPath>
</defs>
</svg>
